PathFileType	4	(X/Y/Z)	56_2_58_p0_0-375_filt_butterworth.trc
DataRate	CameraRate	NumFrames	NumMarkers	Units	OrigDataRate	OrigDataStartFrame	OrigNumFrames
51.0	51.0	7	27	m	51.0	281	375
Frame#	Time	RHip			RKnee			RAnkle			RBigToe			RSmallToe			RHeel			LHip			LKnee			LAnkle			LBigToe			LSmallToe			LHeel			Neck			Head			Nose			RShoulder			RElbow			RWrist			RThumb			RIndex			RPinky			LShoulder			LElbow			LWrist			LThumb			LIndex			LPinky			
		X1	Y1	Z1	X2	Y2	Z2	X3	Y3	Z3	X4	Y4	Z4	X5	Y5	Z5	X6	Y6	Z6	X7	Y7	Z7	X8	Y8	Z8	X9	Y9	Z9	X10	Y10	Z10	X11	Y11	Z11	X12	Y12	Z12	X13	Y13	Z13	X14	Y14	Z14	X15	Y15	Z15	X16	Y16	Z16	X17	Y17	Z17	X18	Y18	Z18	X19	Y19	Z19	X20	Y20	Z20	X21	Y21	Z21	X22	Y22	Z22	X23	Y23	Z23	X24	Y24	Z24	X25	Y25	Z25	X26	Y26	Z26	X27	Y27	Z27	
281	5.509803921568627	0.4677494226851952	0.7124145329600876	0.27122205349683215	0.45558037413536473	0.8328100506916245	0.6714662205240878	0.49713185988557246	1.100110110562865	1.0824054899495645	0.4148268562558197	0.8789871155490293	1.1412349526186465	0.4793612538879042	0.9166363458727604	1.1588762338528338	0.4976816193276041	1.1482019749366104	1.1073555844139162	0.2525054643901663	0.7761788676194873	0.2557847662936804	0.2974769206994001	0.9415749131053837	0.6567584796619795	0.3327862035615612	1.1136513469251406	1.0290273630500049	0.24866402157253736	0.9063216105855767	1.1335284021797098	0.2292573609689059	0.993397271343407	1.1317580297959822	0.3638215110392426	1.1937369535585212	1.0810814891649911	0.3513190286441811	0.5162203785266042	-0.22154433887337968	0.32606080632657175	0.3789442380355545	-0.4352386204248983	0.28894546717068664	0.3559362985756236	-0.2914683354970215	0.4804432911749597	0.48091419063764906	-0.11259810695924533	0.5564342716068693	0.5245045198320057	0.13909427701935312	0.5689874952496864	0.5158369404676291	0.41449251475662097	0.501328043950457	0.53505985226781	0.5184187378049951	0.5207088006062817	0.5113470751973971	0.5346931923088282	0.5809534426584794	0.5567829606344525	0.5224179101579287	0.18878817809627524	0.5947628808481152	-0.15914586845496292	0.12711994296034113	0.7296633234067745	0.08421372476365198	0.04423180497829392	0.7681634825430042	0.32663817892001007	0.07046944968661813	0.7769422702872004	0.4448055228929385	0.023267208430822264	0.7791886178428188	0.45233286346410106	-0.027185533448568062	0.8108151006766116	0.43613178640221384
282	5.529411764705882	0.4612769420893663	0.7054651501509074	0.26962729733244606	0.45592383360320765	0.8342656768308595	0.6718581669265213	0.49887200286134925	1.100718170001248	1.082479548368792	0.41246111592626555	0.8754128213529195	1.140915454141148	0.47938494314918445	0.9164683279328307	1.1589384629937305	0.49852222852076034	1.1509380328645347	1.1095010923133752	0.2509092650920049	0.7744279392831726	0.25213963972573156	0.297547570199708	0.9410624181658935	0.6546325662565637	0.33276391207780276	1.1135728939631866	1.0289632849358517	0.24859398521395606	0.9056524737919032	1.133826897323622	0.22916408262701482	0.9877958039555113	1.1306861061050708	0.3643200847780571	1.1947433483129046	1.0817951951987366	0.35131844720786765	0.5162439884498105	-0.22153790114797273	0.3250087396847634	0.37894394184960906	-0.43520106183543555	0.28892714020569477	0.35603020156864024	-0.2912733176688022	0.48046748698959213	0.4810528589519778	-0.11254861602367316	0.5602848162255282	0.5208533283165372	0.13477202178109887	0.5902696772340394	0.5099257269032775	0.4122975993770238	0.5249111394972179	0.5321643436150056	0.5186719901188971	0.5454517453500684	0.5087342413961338	0.5349153381364379	0.6054387567890075	0.5544623268488786	0.5219278071935718	0.18889399891189623	0.5949634673484486	-0.15908173334411468	0.12530351269790618	0.7310960417048333	0.0798681353055363	0.028752794647691433	0.7894411926700469	0.31557056240211456	0.054748789148513895	0.780080837657245	0.4362715895549642	-0.0029358103694787545	0.7891108002434775	0.44732740973075735	-0.03967905952600534	0.836023504787095	0.43023085085577795
283	5.549019607843137	0.45527460073784876	0.6968585926762254	0.2668757649691521	0.45659206144499903	0.8354282521456974	0.6719622712591136	0.4996235116266431	1.1012769143867558	1.0829676426367294	0.4091901435372089	0.8702313337559442	1.1397454712016954	0.4784132924140668	0.9146970741972027	1.1586275355506794	0.5016054997250297	1.157367647537097	1.1123414155847826	0.25086512149335327	0.7732455186162912	0.24768998236889572	0.2980312243189388	0.9407269471732718	0.6538420286180864	0.3327177652140521	1.1134259413564191	1.0294353008299293	0.2468987462859012	0.9020767414029197	1.132387840919912	0.2289437540935683	0.9855816221187341	1.1302358638703245	0.36635896318604944	1.1997085635634879	1.085764950399999	0.35130381853139747	0.5161633840220509	-0.22159081705073908	0.3227631521771678	0.37795403559831253	-0.4348705868992243	0.2889101404255399	0.35632955916278686	-0.2901544979060844	0.4804778543401054	0.4811036684479124	-0.1125023442426503	0.5643933028285825	0.5181254389987945	0.13150418190822166	0.6026956455766977	0.5022945225229596	0.4066632911798643	0.5430693376568703	0.5130617285996412	0.5175895621463967	0.5721168079339787	0.5036674048942368	0.5346620087829189	0.6237487795586752	0.5513432565670465	0.5218352134025472	0.1887365902950019	0.5948096150339421	-0.15896328712073798	0.12134186761718357	0.7284879188583818	0.07400393974507359	0.009226851932112841	0.7992722311164384	0.3000488123025636	0.033486789016287856	0.7935487524720846	0.4270598473446042	-0.024124219168815082	0.8137905695605232	0.4421061752858095	-0.048363101166362395	0.8746297468632582	0.4171300901861089
284	5.568627450980392	0.45021391684725676	0.6863374560024238	0.26266915843563826	0.45690970326845576	0.836213343431951	0.6718245550574709	0.5002229535036493	1.1024018540796	1.0844274692908737	0.40430634743768806	0.8623931680272282	1.1374616145490344	0.47573725493630314	0.9102829685604737	1.1575614272335306	0.5058798865877657	1.1650579087260513	1.1149000583702935	0.25264751634208404	0.7750487464096684	0.24370785950481433	0.29932794750493646	0.9406841593940065	0.6542504913488205	0.33266614216311746	1.1133018193460171	1.03097469104325	0.24349168100372184	0.8946835146275175	1.1286980076382742	0.2287347467944873	0.9851873767926089	1.1302098774637686	0.369430625499512	1.207162968999071	1.0922100767905836	0.3513660074356745	0.5163033014703352	-0.22132460657354336	0.31962772831762903	0.37513883843142004	-0.43398996943120943	0.2889848956726048	0.35707731337970694	-0.28807873464438494	0.4804667103637554	0.48092583598236627	-0.11275874488598821	0.5674955871995349	0.5169251082599766	0.1287069988496378	0.6082563287299648	0.4925978733994214	0.39843261074457514	0.5608065233821594	0.4878732329953791	0.5161483070101544	0.5948757541214968	0.4977705035344981	0.533370384186578	0.6441245477818928	0.5502859126437154	0.5217176407275466	0.18852476615216013	0.5946360637483145	-0.1588865861312478	0.11423169356954924	0.7217126935253942	0.06683073219683508	-0.012414564404233282	0.80061373989202	0.28325066471338906	0.004411586904834029	0.8066199323026354	0.41252239231034943	-0.03924842818025985	0.8491147530887293	0.4305648217329423	-0.05812327714072864	0.9117942440105706	0.3962885931479844
285	5.588235294117647	0.44599239269730384	0.6776613429673217	0.2588398487122976	0.45700633706143534	0.8367925851430807	0.6711039881316652	0.5010556119503303	1.1039640183540247	1.0864912662744457	0.3985655385497384	0.8534265687700496	1.1352651216419745	0.4722310632514052	0.9047038669507478	1.1560912265040448	0.5088180965170164	1.1698601432499414	1.1162388063357542	0.2536990013563257	0.7773705824044247	0.24172589396052768	0.3011394074605238	0.9408388121595149	0.6554863139604786	0.3326432669759929	1.1132584506970746	1.0330350743276462	0.2392626957961937	0.8849905129199007	1.1236342971242843	0.22873464651268133	0.9867497365507314	1.1306490344213076	0.371825175726135	1.2122807456231586	1.097040275261801	0.35159087687005175	0.5168905949686935	-0.22034431489518388	0.3166393096114905	0.3714382506772125	-0.4328548701288881	0.2891609541157923	0.3579946501351218	-0.28602013534377596	0.4804309571417855	0.48062182591412994	-0.11364327727323555	0.5696844623514594	0.516489888635974	0.12639545915841566	0.6103997650147984	0.4825307960508154	0.3897802032487618	0.5773946058749726	0.47635564572170047	0.5157739951597085	0.607182584030307	0.4925399401295648	0.5309344050732134	0.6678666696350581	0.5510051827351503	0.5207129196906917	0.188986646474306	0.5955842456097529	-0.15905712086403417	0.10611218240360458	0.7154891033792241	0.06020263253576316	-0.029278558283922836	0.8069833462456621	0.2701107535968206	-0.02317631691058186	0.8128990173100532	0.3933356521635506	-0.05115587610764828	0.8778280315746099	0.41010024040733134	-0.07026167571999538	0.9364143236271361	0.3758603244349097
286	5.607843137254902	0.44385947814581916	0.6759153717848261	0.25757650046897085	0.45690500868213335	0.8367550388024539	0.6696820595707923	0.5011602363384432	1.1048395848390604	1.0879308730067145	0.3942838119487746	0.8474403687275497	1.1337939440652256	0.46989173906407733	0.9011026287953002	1.1550841309564155	0.5095227705903911	1.170719923998224	1.1163943030240917	0.2531192928775195	0.7782100674338877	0.2420162971958731	0.30241256116173615	0.9409756909079623	0.6570368811820674	0.33271484003012486	1.113036410011738	1.03400774669062	0.23539695023031693	0.8771521940463083	1.1198874487361528	0.22888161327185721	0.9919091287657096	1.1319199438149716	0.3726894964214408	1.2117313065705504	1.0975344507906803	0.35189614421182286	0.5177063405666591	-0.21898034343944767	0.3150091890706737	0.3690813910799712	-0.4321382619527408	0.28930280714784684	0.3585736004639846	-0.284942308375042	0.48039013184901436	0.4803565534142931	-0.11491970462762706	0.5721941833212546	0.5155201958209704	0.12496862126208011	0.6126927891059291	0.47535698837173124	0.3830374627721642	0.5894492322005328	0.4804876507672068	0.5158780680286627	0.6120597561133146	0.4901079565009553	0.5278527308562517	0.6882592521085333	0.5542514371640384	0.5183103027199591	0.19085446124808345	0.598789837142322	-0.15966038330565407	0.09916415542774236	0.7140045081387028	0.0552582641140566	-0.0380110008299396	0.8242534005969522	0.26209470040838134	-0.04029693032684434	0.8210818085492482	0.3759423753673536	-0.06358425970235108	0.8858332550538113	0.3861994412571059	-0.08192314902704048	0.9520175430838859	0.3634500963932842
287	5.627450980392157	0.4439300401831698	0.679144811442143	0.25860084192858535	0.45599820287686504	0.835119581705988	0.6679022749984317	0.4994664859848147	1.1040833829751446	1.0880947799614225	0.3920337552907016	0.8452661741914742	1.1322889562108878	0.4693500426448825	0.9004252229975256	1.1548384534758689	0.5092391002491301	1.169944880367273	1.1160498917913375	0.2535274698273502	0.7782311300225133	0.24306509635334478	0.3027373793553001	0.9410005563025152	0.658098838952327	0.3329369627666513	1.112306087486262	1.0330063681077415	0.23307192310259617	0.8764341420872027	1.1196909395084327	0.22857437535812605	0.9990863305966113	1.1336281443813723	0.37252619145626903	1.2071362269620312	1.0951319311679795	0.3520875913549248	0.5182092455810631	-0.21809768019413267	0.3147471901325271	0.36861964016790283	-0.4320026267682748	0.28930705231941783	0.35873536165747777	-0.28477415055214383	0.4803705671217209	0.4800662391395954	-0.11615323991696755	0.5761296341627133	0.5127766640174996	0.12435617550527751	0.6180395930168335	0.47151792664194453	0.37944721071868076	0.5968493626395731	0.48624464842115617	0.5152601754569386	0.616781599041975	0.4896670757319148	0.5247199421285936	0.7017519044719384	0.5617735888846753	0.5149781744401856	0.19353588672312513	0.6032378576814744	-0.16050108205377484	0.094133762090706	0.7180831695541194	0.05016358800165778	-0.04184543032074453	0.8454497456361447	0.2567242644475443	-0.04891012508967971	0.840007693400548	0.3648667265128393	-0.07826453754876728	0.8807183079129217	0.3673538787940475	-0.09004994725654379	0.9653101674761577	0.3580034730596346
